<?xml version="1.0" encoding="UTF-8" standalone="no"?>
<svg width="331px" height="89px" viewBox="0 0 331 89" version="1.1" xmlns="http://www.w3.org/2000/svg" xmlns:xlink="http://www.w3.org/1999/xlink">
    <!-- Generator: Sketch 39.1 (31720) - http://www.bohemiancoding.com/sketch -->
    <title>Page 1 Copy</title>
    <desc>Created with Sketch.</desc>
    <defs>
        <polygon id="path-1" points="0 88.0326087 330.426331 88.0326087 330.426331 0.945141304 0 0.945141304"></polygon>
    </defs>
    <g id="Page-1" stroke="none" stroke-width="1" fill="none" fill-rule="evenodd">
        <g id="Artboard-Copy" transform="translate(-5.000000, 0.000000)">
            <g id="Page-1-Copy" transform="translate(5.000000, 0.000000)">
                <g id="Group-3" transform="translate(0.000000, 0.022637)">
                    <mask id="mask-2" fill="white">
                        <use xlink:href="#path-1"></use>
                    </mask>
                    <g id="Clip-2"></g>
                    <path d="M263.232846,61.5909022 C261.206078,61.5909022 260.045151,60.2123696 260.045151,57.8084022 C260.045151,55.3154348 261.268201,53.7676087 263.232846,53.7676087 C265.198462,53.7676087 266.41957,55.3154348 266.41957,57.8084022 C266.41957,60.2123696 265.259614,61.5909022 263.232846,61.5909022 M324.100931,52.549663 L328.958186,42.4588043 C330.255978,39.7578478 329.676485,36.5325652 327.517705,34.4497717 C326.767374,33.726163 319.815403,27.3839457 306.936494,27.3839457 C297.952902,27.3839457 290.471913,30.6034239 286.008752,35.8195978 C280.231298,30.544413 272.238764,27.3839457 263.147427,27.3839457 C257.671852,27.3839457 252.481655,28.5457826 247.874834,30.7746522 C244.907482,29.0014239 241.125735,27.6896413 236.81594,27.6896413 C233.432169,27.6896413 230.151289,28.1036848 227.205292,29.6311957 C225.982242,28.5825435 224.392277,27.5116413 222.651858,27.5116413 L207.995644,27.5116413 C204.920547,27.5116413 202.316227,29.9320543 201.38438,32.6842826 C196.745526,28.9820761 190.687547,27.1169457 183.636567,27.1169457 C176.369128,27.1169457 169.92482,29.5954022 164.872459,33.4059565 C163.813453,30.9081522 161.332409,29.4464239 158.439799,29.4464239 L157.248782,29.4464239 L157.248782,23.5163152 C157.248782,19.673837 153.220482,16.870337 149.365934,16.870337 L134.708749,16.870337 C133.662362,16.870337 132.672274,16.9515978 131.782166,17.3627391 C131.789931,17.1479783 131.797696,16.8529239 131.797696,16.6352609 C131.797696,8.00322826 124.752541,0.945141304 116.094125,0.945141304 C107.433767,0.945141304 100.388611,7.94615217 100.388611,16.5772174 C100.388611,22.2703152 103.455943,27.2523804 108.030732,29.9920326 C106.912515,30.77175 105.85545,31.57275 104.853714,32.3979348 C101.007902,29.9233478 95.0489311,27.3868478 86.7428695,27.3868478 C77.8660513,27.3868478 70.0492097,30.3064348 64.2804912,35.6783587 C63.639846,35.2865652 62.9894941,34.9025109 62.3284648,34.5261957 C65.1443915,31.6975435 66.8867522,27.8037935 66.8867522,23.5124457 C66.8867522,14.8833152 59.8406261,7.86198913 51.1822097,7.86198913 C42.5228226,7.86198913 35.4776672,14.8833152 35.4776672,23.5124457 C35.4776672,26.3198152 36.2260572,28.9540217 37.5306437,31.234163 C36.4201921,32.6214022 35.7310132,34.3743152 35.6572419,36.3361848 C35.6514179,36.4929022 35.6504472,37.0085217 35.6553006,37.1671739 L36.3541862,60.4029457 L29.1197493,60.4029457 L29.1197493,15.8632826 C29.1197493,12.0227391 25.491368,9.13120652 21.6368196,9.13120652 L6.98060557,9.13120652 C3.12508651,9.13120652 -0.000485337243,12.0227391 -0.000485337243,15.8632826 L-0.000485337243,79.860087 C-0.000485337243,83.7015978 3.12508651,86.5225109 6.98060557,86.5225109 L41.7336642,86.5225109 C42.1044619,86.5225109 42.4733182,86.4847826 42.8363504,86.4267391 C43.2003534,86.4847826 43.571151,86.5225109 43.9516554,86.5225109 L59.9697258,86.5225109 C61.9139868,86.5225109 63.7699164,85.8617826 65.0919751,84.43875 C65.8393944,83.632913 66.368412,82.7438804 66.6673798,81.7126413 C71.7653622,85.5173913 78.4727229,87.936837 86.7428695,87.936837 C93.9928372,87.936837 99.6722537,85.9759348 103.727732,83.8022065 C103.94128,84.0372826 104.167447,84.2723587 104.414969,84.4774457 C105.679758,85.5280326 107.262928,86.0958913 108.882984,86.0958913 C109.301345,86.0958913 109.721647,86.0610652 110.139037,85.9836739 L124.01677,83.4558804 C127.275324,82.8609348 129.664154,80.0680761 129.738896,76.7683043 C129.738896,76.7683043 129.751515,76.1540109 129.776752,75.0773043 C133.996274,82.8551304 142.882799,87.3680109 154.999729,87.3680109 C155.176391,87.3680109 155.349172,87.3612391 155.523893,87.348663 C160.004526,87.0110435 164.650174,85.2561957 168.055301,83.6609674 C172.930028,86.4944565 178.682245,87.9735978 184.940183,87.9735978 C192.337694,87.9735978 198.230658,85.8027717 202.314286,83.7451304 C203.581987,85.5125543 205.650494,86.5225109 207.995644,86.5225109 L223.350743,86.5225109 C227.206262,86.5225109 231.020043,83.7015978 231.020043,79.860087 L231.020043,63.0913261 C231.020043,61.232 230.799699,59.9134457 231.028779,59.1908043 C231.082166,59.0263478 230.97345,58.8435109 231.061782,58.6316522 C231.483054,75.4333043 245.158887,88.0326087 263.318265,88.0326087 C270.831286,88.0326087 277.8745,85.5125543 283.467526,81.5133587 C290.461236,85.5947826 297.786916,87.4899022 305.000969,87.4899022 L305.135893,87.4899022 C319.791136,87.4899022 330.426817,78.8172391 330.426817,66.6590652 C330.426817,60.1669022 327.705045,55.8358913 324.100931,52.549663" id="Fill-1" fill="#707070" mask="url(#mask-2)"></path>
                </g>
                <path d="M51.1822097,32.2299957 C56.0006378,32.2299957 59.906632,28.3381804 59.906632,23.5350826 C59.906632,18.7339196 56.0006378,14.8401696 51.1822097,14.8401696 C46.3618402,14.8401696 42.4577874,18.7339196 42.4577874,23.5350826 C42.4577874,28.3381804 46.3618402,32.2299957 51.1822097,32.2299957" id="Fill-4" fill="#FFFFFF"></path>
                <path d="M116.094222,7.88462609 C111.273852,7.88462609 107.369799,11.7764413 107.369799,16.5795391 C107.369799,21.382637 111.273852,25.2754196 116.094222,25.2754196 C120.91265,25.2754196 124.818644,21.382637 124.818644,16.5795391 C124.818644,11.7764413 120.91265,7.88462609 116.094222,7.88462609" id="Fill-6" fill="#FFFFFF"></path>
                <path d="M119.601463,31.5157707 C109.8258,35.610738 104.047375,42.5188793 99.3289261,48.1007272 C94.8725595,53.3730098 91.3528938,57.6227598 86.1898762,57.6227598 L86.1889056,57.6227598 C85.0192428,57.6227598 83.8330786,57.3257707 82.561495,56.8856076 C80.3444745,56.2094011 77.217932,53.7367489 73.2614628,50.6594772 C66.0357619,45.0408685 56.1397355,37.3249554 44.9779496,35.1338141 C44.7139261,35.0786728 44.4731988,35.0409446 44.2577091,35.0409446 C42.7356915,35.0409446 42.6376534,36.8867272 42.6318293,37.0492489 L43.950976,80.7414772 L59.9690463,80.7414772 L57.8723894,53.2569228 L58.6596065,53.0740859 C65.8523044,53.3749446 70.9939672,56.8101511 75.1261284,59.6552489 C77.5838762,61.3472163 79.7057707,62.7528359 81.813105,63.3235967 C83.2691167,63.7163576 84.7406592,63.8885533 86.1821109,63.8885533 C88.6418,63.8885533 90.9005595,63.2839337 92.7128088,62.1607924 C93.9863337,61.3694663 95.4510815,60.1137924 97.0022194,58.795238 C100.148175,56.1145967 103.630955,53.0721511 107.876686,51.6346076 L108.715348,51.319238 L108.715348,79.1675315 L122.67753,76.6368359 L123.653058,34.7981293 C123.673442,32.8710859 123.192958,29.8566946 119.601463,31.5157707" id="Fill-8" fill="#FFFFFF"></path>
                <polygon id="Fill-10" fill="#FFFFFF" points="21.3548387 66.2304141 21.3548387 14.958675 7.76539589 14.958675 7.76539589 80.7412837 41.7331789 80.7412837 41.0342933 66.2304141"></polygon>
                <path d="M176.076955,51.7195446 C176.859318,48.8173707 178.945298,45.3115446 183.289066,45.3115446 C186.853383,45.3115446 189.198532,48.8173707 189.198532,51.7195446 L176.076955,51.7195446 Z M204.317758,55.8377293 C204.317758,43.4551207 196.845506,34.3190772 183.636567,34.3190772 C169.212345,34.3190772 160.349116,44.5589141 160.349116,57.6351424 C160.349116,60.4357402 160.833482,63.2247293 161.775037,65.839588 C160.489864,66.5157946 158.803802,67.2674576 157.307993,67.2655228 C154.441591,67.2655228 149.484356,66.5767402 149.484356,61.555012 L149.484356,47.8499793 L158.220427,47.8499793 L158.220427,36.2412837 L149.484356,36.2412837 L149.484356,23.6651967 L133.953565,23.6651967 L133.953565,36.2412837 L125.633913,36.2412837 L124.936969,47.8499793 L133.953565,47.8499793 L133.953565,63.547838 C133.953565,78.5288598 147.845858,80.4346207 154.970609,80.4346207 C160.383089,80.0283163 166.647823,76.6763054 168.559081,75.5841207 C172.599028,78.927425 178.091104,81.0402076 184.933389,81.0402076 C196.838711,81.0402076 204.052764,74.5451424 204.052764,74.5451424 L198.494682,64.0673272 C198.494682,64.0673272 192.586186,68.4805663 186.157409,68.4805663 C181.375867,68.4805663 176.859318,66.2304141 175.730424,60.4260663 L203.969286,60.4260663 C203.969286,60.4260663 204.317758,57.3091315 204.317758,55.8377293 L204.317758,55.8377293 Z" id="Fill-12" fill="#FFFFFF"></path>
                <path d="M74.9912047,49.356788 C76.1996944,50.2990272 77.348973,51.190962 78.4108909,51.9803533 C80.0552135,49.023038 83.1477824,46.8338315 87.6983044,46.8338315 C90.9985977,46.8338315 93.7582252,48.0691902 95.6277443,49.2213533 C96.2450933,48.511288 96.8799144,47.7625272 97.5448264,46.9731359 L97.8573836,46.6035924 C99.5842135,44.560462 101.455674,42.3538424 103.597952,40.167538 C101.532357,38.3101467 96.0509584,34.3622228 86.74219,34.3622228 C77.7207413,34.3622228 70.9842604,37.9435054 66.798712,43.1925707 C69.6000786,45.1650815 72.175278,47.1675815 74.4816006,48.961125 L74.9912047,49.356788 Z" id="Fill-14" fill="#FFFFFF"></path>
                <path d="M88.2185859,68.5694696 C84.2281431,68.5694696 81.3335918,66.9471543 79.4854276,64.6418609 C77.682885,63.8408609 75.9114041,62.6238826 73.9399642,61.2666326 C70.5581343,58.9381217 66.8064774,56.3638935 61.9288381,55.3616761 C61.8540962,56.123013 61.8036211,56.8882196 61.8036211,57.658263 C61.8036211,69.9557413 70.7522692,81.0401109 86.74219,81.0401109 C99.2551548,81.0401109 105.946014,73.6792304 105.946014,73.6792304 L100.47141,63.2004478 C100.47141,63.2004478 94.4755537,68.5694696 88.2185859,68.5694696" id="Fill-16" fill="#FFFFFF"></path>
                <path d="M263.232846,68.5694696 C257.759213,68.5694696 253.066001,64.4996543 253.066001,57.8304587 C253.066001,51.0761326 257.759213,46.8331543 263.232846,46.8331543 C268.70745,46.8331543 273.400661,51.0761326 273.400661,57.8304587 C273.400661,64.4996543 268.70745,68.5694696 263.232846,68.5694696 M302.504394,48.6508826 C302.504394,47.0924152 304.677735,46.4868283 306.936494,46.4868283 C313.192491,46.4868283 317.53723,50.1242196 317.53723,50.1242196 L322.665304,39.4722739 C322.665304,39.4722739 317.36445,34.362513 306.936494,34.362513 C296.595899,34.362513 288.515034,39.5583717 288.515034,47.9582304 C288.515034,62.5068283 309.456365,62.9421543 309.456365,66.8368717 C309.456365,68.3092413 307.284966,68.9157957 305.025236,68.9157957 C298.970169,68.9157957 290.642752,63.3494261 288.310221,61.650687 C288.504356,60.4211326 288.605306,59.1470783 288.605306,57.8304587 C288.605306,43.80135 277.310538,34.362513 263.147427,34.362513 C257.139922,34.362513 251.633286,36.1067196 247.300195,39.2043065 C245.288957,36.9270674 241.361609,34.2425565 236.81594,34.2425565 C230.127022,34.2425565 224.477696,39.1433609 222.565468,44.9477087 L222.391717,44.9477087 C222.391717,44.9477087 222.283972,44.4079043 222.283972,42.9355348 L222.283972,35.2737957 L208.694529,35.2737957 L208.694529,80.741187 L223.254647,80.741187 L223.254647,63.1133826 C223.254647,60.6891 223.474019,58.6982087 223.996242,57.0526761 C226.167641,50.3834804 232.046045,49.257437 235.610362,49.257437 C236.61501,49.257437 237.532298,49.5611978 238.968896,50.5092413 C238.24089,52.7719696 237.854562,55.220437 237.854562,57.8304587 C237.854562,71.7734696 249.152242,81.0401109 263.228963,81.0401109 C271.143843,81.0401109 278.179292,78.11085 282.822999,73.0697739 C288.208301,77.0022196 295.965931,81.0730022 305.111626,81.0401109 C316.668477,80.998513 323.445726,74.5450457 323.445726,66.923937 C323.445726,52.5485022 302.504394,52.0280457 302.504394,48.6508826" id="Fill-18" fill="#FFFFFF"></path>
            </g>
        </g>
    </g>
</svg>